# xmcd
#
# Track frame offsets: 
#        150
#        17134
#        35664
#        53144
#        72719
#        85826
#        98848
#        115742
#        129018
#        144866
#        158621
#        180552
#
# Disc length: 2674 seconds
#
# Revision: 0
# Processed by: cddbd v1.5.2PL0 Copyright (c) Steve Scherf et al.
# Submitted via: ExactAudioCopy v1.0b3
#
DISCID=950a700c
DTITLE=Brothers Chaffey - Harbour Street Soul
DYEAR=2005
DGENRE=Country
TTITLE0=Drums, Guitars and Things
TTITLE1=Baby, Ooh Baby, Ooh Baby
TTITLE2=I Heard You Call My Name
TTITLE3=You've Got To Be Strong
TTITLE4=The Phone
TTITLE5=Runaway
TTITLE6=Come Back To Me
TTITLE7=Wrapped Up In You
TTITLE8=Jolene
TTITLE9=Good Woman
TTITLE10=Don't Leave Me Like This
TTITLE11=I'm Still Waiting
EXTD=
EXTT0=
EXTT1=
EXTT2=
EXTT3=
EXTT4=
EXTT5=
EXTT6=
EXTT7=
EXTT8=
EXTT9=
EXTT10=
EXTT11=
PLAYORDER=
